<svg width="20" height="21" viewBox="0 0 20 21" fill="none" xmlns="http://www.w3.org/2000/svg">
<path d="M2.99983 9.52728C2.99983 5.109 6.58125 1.52728 10.9992 1.52728C15.4171 1.52728 18.9985 5.109 18.9985 9.52728C18.9985 10.6773 18.7558 11.7706 18.319 12.7589L19 17.5265L14.9146 16.5051C13.7572 17.156 12.4215 17.5273 10.9992 17.5273M1.00095 14.5273C1.00095 15.246 1.15258 15.9294 1.4256 16.547L1 19.5268L3.55315 18.8884C4.27643 19.2952 5.11115 19.5273 6.00005 19.5273C8.76098 19.5273 10.9992 17.2887 10.9992 14.5273C10.9992 11.7659 8.76098 9.52728 6.00005 9.52728C3.23912 9.52728 1.00095 11.7659 1.00095 14.5273Z" stroke="black" stroke-width="2" stroke-linecap="round" stroke-linejoin="round"/>
</svg>
